<mxfile host="app.diagrams.net" agent="Mozilla/5.0 (Macintosh; Intel Mac OS X 10_15_7) AppleWebKit/605.1.15 (KHTML, like Gecko) Version/18.2 Safari/605.1.15" version="26.0.16">
  <diagram id="C5RBs43oDa-KdzZeNtuy" name="Page-1">
    <mxGraphModel dx="918" dy="1723" grid="1" gridSize="10" guides="1" tooltips="1" connect="1" arrows="1" fold="1" page="1" pageScale="1" pageWidth="827" pageHeight="1169" math="0" shadow="0">
      <root>
        <mxCell id="WIyWlLk6GJQsqaUBKTNV-0" />
        <mxCell id="WIyWlLk6GJQsqaUBKTNV-1" parent="WIyWlLk6GJQsqaUBKTNV-0" />
        <mxCell id="mmrXnuS6sMcIIKid6mpZ-5" style="edgeStyle=orthogonalEdgeStyle;rounded=0;orthogonalLoop=1;jettySize=auto;html=1;" edge="1" parent="WIyWlLk6GJQsqaUBKTNV-1" source="mmrXnuS6sMcIIKid6mpZ-0">
          <mxGeometry relative="1" as="geometry">
            <mxPoint x="230" y="-40" as="targetPoint" />
          </mxGeometry>
        </mxCell>
        <mxCell id="mmrXnuS6sMcIIKid6mpZ-0" value="" style="rounded=0;whiteSpace=wrap;html=1;" vertex="1" parent="WIyWlLk6GJQsqaUBKTNV-1">
          <mxGeometry x="170" y="-150" width="120" height="60" as="geometry" />
        </mxCell>
        <mxCell id="mmrXnuS6sMcIIKid6mpZ-1" value="S0" style="ellipse;whiteSpace=wrap;html=1;aspect=fixed;" vertex="1" parent="WIyWlLk6GJQsqaUBKTNV-1">
          <mxGeometry x="80" y="-150" width="55" height="55" as="geometry" />
        </mxCell>
        <mxCell id="mmrXnuS6sMcIIKid6mpZ-8" value="S1" style="ellipse;whiteSpace=wrap;html=1;aspect=fixed;" vertex="1" parent="WIyWlLk6GJQsqaUBKTNV-1">
          <mxGeometry x="85" y="-40" width="50" height="50" as="geometry" />
        </mxCell>
        <mxCell id="mmrXnuS6sMcIIKid6mpZ-16" value="" style="edgeStyle=orthogonalEdgeStyle;rounded=0;orthogonalLoop=1;jettySize=auto;html=1;" edge="1" parent="WIyWlLk6GJQsqaUBKTNV-1" source="mmrXnuS6sMcIIKid6mpZ-14" target="mmrXnuS6sMcIIKid6mpZ-0">
          <mxGeometry relative="1" as="geometry" />
        </mxCell>
        <mxCell id="mmrXnuS6sMcIIKid6mpZ-17" style="edgeStyle=orthogonalEdgeStyle;rounded=0;orthogonalLoop=1;jettySize=auto;html=1;entryX=0.5;entryY=0;entryDx=0;entryDy=0;" edge="1" parent="WIyWlLk6GJQsqaUBKTNV-1" source="mmrXnuS6sMcIIKid6mpZ-14" target="mmrXnuS6sMcIIKid6mpZ-0">
          <mxGeometry relative="1" as="geometry">
            <mxPoint x="210" y="70" as="targetPoint" />
            <Array as="points">
              <mxPoint x="210" y="310" />
              <mxPoint x="300" y="310" />
              <mxPoint x="300" y="70" />
              <mxPoint x="210" y="70" />
            </Array>
          </mxGeometry>
        </mxCell>
        <mxCell id="mmrXnuS6sMcIIKid6mpZ-14" value="LED" style="rounded=0;whiteSpace=wrap;html=1;" vertex="1" parent="WIyWlLk6GJQsqaUBKTNV-1">
          <mxGeometry x="170" y="-30" width="120" height="60" as="geometry" />
        </mxCell>
        <mxCell id="mmrXnuS6sMcIIKid6mpZ-25" style="edgeStyle=orthogonalEdgeStyle;rounded=0;orthogonalLoop=1;jettySize=auto;html=1;entryX=0.5;entryY=0;entryDx=0;entryDy=0;" edge="1" parent="WIyWlLk6GJQsqaUBKTNV-1" source="mmrXnuS6sMcIIKid6mpZ-20" target="mmrXnuS6sMcIIKid6mpZ-21">
          <mxGeometry relative="1" as="geometry" />
        </mxCell>
        <mxCell id="mmrXnuS6sMcIIKid6mpZ-20" value="LED1" style="rounded=0;whiteSpace=wrap;html=1;" vertex="1" parent="WIyWlLk6GJQsqaUBKTNV-1">
          <mxGeometry x="140" y="200" width="120" height="60" as="geometry" />
        </mxCell>
        <mxCell id="mmrXnuS6sMcIIKid6mpZ-26" style="edgeStyle=orthogonalEdgeStyle;rounded=0;orthogonalLoop=1;jettySize=auto;html=1;entryX=0.5;entryY=0;entryDx=0;entryDy=0;" edge="1" parent="WIyWlLk6GJQsqaUBKTNV-1" source="mmrXnuS6sMcIIKid6mpZ-21" target="mmrXnuS6sMcIIKid6mpZ-22">
          <mxGeometry relative="1" as="geometry" />
        </mxCell>
        <mxCell id="mmrXnuS6sMcIIKid6mpZ-21" value="LED2" style="rounded=0;whiteSpace=wrap;html=1;" vertex="1" parent="WIyWlLk6GJQsqaUBKTNV-1">
          <mxGeometry x="140" y="315" width="120" height="60" as="geometry" />
        </mxCell>
        <mxCell id="mmrXnuS6sMcIIKid6mpZ-27" style="edgeStyle=orthogonalEdgeStyle;rounded=0;orthogonalLoop=1;jettySize=auto;html=1;entryX=0.5;entryY=0;entryDx=0;entryDy=0;" edge="1" parent="WIyWlLk6GJQsqaUBKTNV-1" source="mmrXnuS6sMcIIKid6mpZ-22" target="mmrXnuS6sMcIIKid6mpZ-23">
          <mxGeometry relative="1" as="geometry">
            <mxPoint x="280" y="320" as="targetPoint" />
            <Array as="points">
              <mxPoint x="180" y="530" />
              <mxPoint x="280" y="530" />
              <mxPoint x="280" y="320" />
              <mxPoint x="180" y="320" />
              <mxPoint x="180" y="100" />
            </Array>
          </mxGeometry>
        </mxCell>
        <mxCell id="mmrXnuS6sMcIIKid6mpZ-22" value="&lt;div&gt;LED1&lt;/div&gt;&lt;div&gt;LED2&lt;/div&gt;" style="rounded=0;whiteSpace=wrap;html=1;" vertex="1" parent="WIyWlLk6GJQsqaUBKTNV-1">
          <mxGeometry x="140" y="420" width="120" height="60" as="geometry" />
        </mxCell>
        <mxCell id="mmrXnuS6sMcIIKid6mpZ-24" style="edgeStyle=orthogonalEdgeStyle;rounded=0;orthogonalLoop=1;jettySize=auto;html=1;entryX=0.5;entryY=0;entryDx=0;entryDy=0;" edge="1" parent="WIyWlLk6GJQsqaUBKTNV-1" source="mmrXnuS6sMcIIKid6mpZ-23" target="mmrXnuS6sMcIIKid6mpZ-20">
          <mxGeometry relative="1" as="geometry" />
        </mxCell>
        <mxCell id="mmrXnuS6sMcIIKid6mpZ-23" value="" style="rounded=0;whiteSpace=wrap;html=1;" vertex="1" parent="WIyWlLk6GJQsqaUBKTNV-1">
          <mxGeometry x="140" y="100" width="120" height="60" as="geometry" />
        </mxCell>
        <mxCell id="mmrXnuS6sMcIIKid6mpZ-28" value="S0" style="ellipse;whiteSpace=wrap;html=1;aspect=fixed;" vertex="1" parent="WIyWlLk6GJQsqaUBKTNV-1">
          <mxGeometry x="80" y="110" width="40" height="40" as="geometry" />
        </mxCell>
        <mxCell id="mmrXnuS6sMcIIKid6mpZ-29" value="S1" style="ellipse;whiteSpace=wrap;html=1;aspect=fixed;" vertex="1" parent="WIyWlLk6GJQsqaUBKTNV-1">
          <mxGeometry x="80" y="210" width="40" height="40" as="geometry" />
        </mxCell>
        <mxCell id="mmrXnuS6sMcIIKid6mpZ-30" value="S2" style="ellipse;whiteSpace=wrap;html=1;aspect=fixed;" vertex="1" parent="WIyWlLk6GJQsqaUBKTNV-1">
          <mxGeometry x="80" y="320" width="40" height="40" as="geometry" />
        </mxCell>
        <mxCell id="mmrXnuS6sMcIIKid6mpZ-31" value="S3" style="ellipse;whiteSpace=wrap;html=1;aspect=fixed;" vertex="1" parent="WIyWlLk6GJQsqaUBKTNV-1">
          <mxGeometry x="80" y="430" width="40" height="40" as="geometry" />
        </mxCell>
        <mxCell id="mmrXnuS6sMcIIKid6mpZ-51" style="edgeStyle=orthogonalEdgeStyle;rounded=0;orthogonalLoop=1;jettySize=auto;html=1;entryX=1;entryY=0.5;entryDx=0;entryDy=0;" edge="1" parent="WIyWlLk6GJQsqaUBKTNV-1" source="mmrXnuS6sMcIIKid6mpZ-32" target="mmrXnuS6sMcIIKid6mpZ-40">
          <mxGeometry relative="1" as="geometry">
            <mxPoint x="270" y="750" as="targetPoint" />
            <Array as="points">
              <mxPoint x="420" y="990" />
              <mxPoint x="420" y="760" />
              <mxPoint x="260" y="760" />
            </Array>
          </mxGeometry>
        </mxCell>
        <mxCell id="mmrXnuS6sMcIIKid6mpZ-32" value="LED" style="rounded=0;whiteSpace=wrap;html=1;" vertex="1" parent="WIyWlLk6GJQsqaUBKTNV-1">
          <mxGeometry x="280" y="960" width="120" height="60" as="geometry" />
        </mxCell>
        <mxCell id="mmrXnuS6sMcIIKid6mpZ-35" style="edgeStyle=orthogonalEdgeStyle;rounded=0;orthogonalLoop=1;jettySize=auto;html=1;entryX=0.567;entryY=-0.067;entryDx=0;entryDy=0;entryPerimeter=0;" edge="1" parent="WIyWlLk6GJQsqaUBKTNV-1" source="mmrXnuS6sMcIIKid6mpZ-33" target="mmrXnuS6sMcIIKid6mpZ-32">
          <mxGeometry relative="1" as="geometry">
            <mxPoint x="350" y="870" as="targetPoint" />
            <Array as="points">
              <mxPoint x="350" y="870" />
              <mxPoint x="350" y="956" />
            </Array>
          </mxGeometry>
        </mxCell>
        <mxCell id="mmrXnuS6sMcIIKid6mpZ-36" style="edgeStyle=orthogonalEdgeStyle;rounded=0;orthogonalLoop=1;jettySize=auto;html=1;entryX=0.5;entryY=0;entryDx=0;entryDy=0;" edge="1" parent="WIyWlLk6GJQsqaUBKTNV-1" source="mmrXnuS6sMcIIKid6mpZ-33" target="mmrXnuS6sMcIIKid6mpZ-34">
          <mxGeometry relative="1" as="geometry">
            <mxPoint x="80" y="870" as="targetPoint" />
            <Array as="points">
              <mxPoint x="80" y="870" />
            </Array>
          </mxGeometry>
        </mxCell>
        <mxCell id="mmrXnuS6sMcIIKid6mpZ-33" value="" style="rhombus;whiteSpace=wrap;html=1;" vertex="1" parent="WIyWlLk6GJQsqaUBKTNV-1">
          <mxGeometry x="160" y="830" width="80" height="80" as="geometry" />
        </mxCell>
        <mxCell id="mmrXnuS6sMcIIKid6mpZ-42" style="edgeStyle=orthogonalEdgeStyle;rounded=0;orthogonalLoop=1;jettySize=auto;html=1;entryX=0.017;entryY=0.4;entryDx=0;entryDy=0;entryPerimeter=0;" edge="1" parent="WIyWlLk6GJQsqaUBKTNV-1" target="mmrXnuS6sMcIIKid6mpZ-40">
          <mxGeometry relative="1" as="geometry">
            <mxPoint x="-40" y="750" as="targetPoint" />
            <mxPoint x="40" y="980" as="sourcePoint" />
            <Array as="points">
              <mxPoint x="40" y="760" />
              <mxPoint x="142" y="760" />
            </Array>
          </mxGeometry>
        </mxCell>
        <mxCell id="mmrXnuS6sMcIIKid6mpZ-34" value="" style="rounded=0;whiteSpace=wrap;html=1;" vertex="1" parent="WIyWlLk6GJQsqaUBKTNV-1">
          <mxGeometry x="20" y="960" width="120" height="60" as="geometry" />
        </mxCell>
        <mxCell id="mmrXnuS6sMcIIKid6mpZ-37" value="0" style="text;html=1;align=center;verticalAlign=middle;whiteSpace=wrap;rounded=0;" vertex="1" parent="WIyWlLk6GJQsqaUBKTNV-1">
          <mxGeometry x="100" y="830" width="60" height="30" as="geometry" />
        </mxCell>
        <mxCell id="mmrXnuS6sMcIIKid6mpZ-38" value="1" style="text;html=1;align=center;verticalAlign=middle;whiteSpace=wrap;rounded=0;" vertex="1" parent="WIyWlLk6GJQsqaUBKTNV-1">
          <mxGeometry x="260" y="830" width="60" height="30" as="geometry" />
        </mxCell>
        <mxCell id="mmrXnuS6sMcIIKid6mpZ-41" style="edgeStyle=orthogonalEdgeStyle;rounded=0;orthogonalLoop=1;jettySize=auto;html=1;entryX=0.5;entryY=0;entryDx=0;entryDy=0;" edge="1" parent="WIyWlLk6GJQsqaUBKTNV-1" source="mmrXnuS6sMcIIKid6mpZ-40" target="mmrXnuS6sMcIIKid6mpZ-33">
          <mxGeometry relative="1" as="geometry" />
        </mxCell>
        <mxCell id="mmrXnuS6sMcIIKid6mpZ-40" value="" style="rounded=0;whiteSpace=wrap;html=1;" vertex="1" parent="WIyWlLk6GJQsqaUBKTNV-1">
          <mxGeometry x="140" y="720" width="120" height="60" as="geometry" />
        </mxCell>
        <mxCell id="mmrXnuS6sMcIIKid6mpZ-50" value="S0" style="ellipse;whiteSpace=wrap;html=1;aspect=fixed;" vertex="1" parent="WIyWlLk6GJQsqaUBKTNV-1">
          <mxGeometry x="60" y="700" width="40" height="40" as="geometry" />
        </mxCell>
        <mxCell id="mmrXnuS6sMcIIKid6mpZ-52" value="S1" style="ellipse;whiteSpace=wrap;html=1;aspect=fixed;" vertex="1" parent="WIyWlLk6GJQsqaUBKTNV-1">
          <mxGeometry x="220" y="970" width="40" height="40" as="geometry" />
        </mxCell>
        <mxCell id="mmrXnuS6sMcIIKid6mpZ-54" value="" style="edgeStyle=orthogonalEdgeStyle;rounded=0;orthogonalLoop=1;jettySize=auto;html=1;" edge="1" parent="WIyWlLk6GJQsqaUBKTNV-1" source="mmrXnuS6sMcIIKid6mpZ-53" target="mmrXnuS6sMcIIKid6mpZ-32">
          <mxGeometry relative="1" as="geometry">
            <Array as="points">
              <mxPoint x="340" y="1050" />
              <mxPoint x="340" y="1050" />
            </Array>
          </mxGeometry>
        </mxCell>
        <mxCell id="mmrXnuS6sMcIIKid6mpZ-55" style="edgeStyle=orthogonalEdgeStyle;rounded=0;orthogonalLoop=1;jettySize=auto;html=1;exitX=0.5;exitY=1;exitDx=0;exitDy=0;entryX=0.5;entryY=0;entryDx=0;entryDy=0;" edge="1" parent="WIyWlLk6GJQsqaUBKTNV-1" source="mmrXnuS6sMcIIKid6mpZ-53" target="mmrXnuS6sMcIIKid6mpZ-40">
          <mxGeometry relative="1" as="geometry">
            <mxPoint x="200" y="650" as="targetPoint" />
            <Array as="points">
              <mxPoint x="340" y="1160" />
              <mxPoint x="470" y="1160" />
              <mxPoint x="470" y="650" />
              <mxPoint x="200" y="650" />
            </Array>
          </mxGeometry>
        </mxCell>
        <mxCell id="mmrXnuS6sMcIIKid6mpZ-56" style="edgeStyle=orthogonalEdgeStyle;rounded=0;orthogonalLoop=1;jettySize=auto;html=1;" edge="1" parent="WIyWlLk6GJQsqaUBKTNV-1" source="mmrXnuS6sMcIIKid6mpZ-53">
          <mxGeometry relative="1" as="geometry">
            <mxPoint x="270" y="870" as="targetPoint" />
            <Array as="points">
              <mxPoint x="410" y="1090" />
              <mxPoint x="410" y="820" />
              <mxPoint x="270" y="820" />
            </Array>
          </mxGeometry>
        </mxCell>
        <mxCell id="mmrXnuS6sMcIIKid6mpZ-53" value="" style="rhombus;whiteSpace=wrap;html=1;" vertex="1" parent="WIyWlLk6GJQsqaUBKTNV-1">
          <mxGeometry x="300" y="1050" width="80" height="80" as="geometry" />
        </mxCell>
        <mxCell id="mmrXnuS6sMcIIKid6mpZ-57" value="1" style="text;html=1;align=center;verticalAlign=middle;whiteSpace=wrap;rounded=0;" vertex="1" parent="WIyWlLk6GJQsqaUBKTNV-1">
          <mxGeometry x="360" y="1120" width="60" height="30" as="geometry" />
        </mxCell>
        <mxCell id="mmrXnuS6sMcIIKid6mpZ-58" value="0&lt;div&gt;&lt;br&gt;&lt;/div&gt;" style="text;html=1;align=center;verticalAlign=middle;whiteSpace=wrap;rounded=0;" vertex="1" parent="WIyWlLk6GJQsqaUBKTNV-1">
          <mxGeometry x="354" y="1060" width="60" height="30" as="geometry" />
        </mxCell>
        <mxCell id="mmrXnuS6sMcIIKid6mpZ-59" value="0" style="rounded=0;whiteSpace=wrap;html=1;" vertex="1" parent="WIyWlLk6GJQsqaUBKTNV-1">
          <mxGeometry x="240" y="1200" width="120" height="60" as="geometry" />
        </mxCell>
        <mxCell id="mmrXnuS6sMcIIKid6mpZ-72" value="" style="edgeStyle=orthogonalEdgeStyle;rounded=0;orthogonalLoop=1;jettySize=auto;html=1;" edge="1" parent="WIyWlLk6GJQsqaUBKTNV-1" source="mmrXnuS6sMcIIKid6mpZ-60" target="mmrXnuS6sMcIIKid6mpZ-63">
          <mxGeometry relative="1" as="geometry">
            <Array as="points">
              <mxPoint x="300" y="1460" />
              <mxPoint x="294" y="1460" />
            </Array>
          </mxGeometry>
        </mxCell>
        <mxCell id="mmrXnuS6sMcIIKid6mpZ-60" value="1" style="rounded=0;whiteSpace=wrap;html=1;" vertex="1" parent="WIyWlLk6GJQsqaUBKTNV-1">
          <mxGeometry x="240" y="1380" width="120" height="60" as="geometry" />
        </mxCell>
        <mxCell id="mmrXnuS6sMcIIKid6mpZ-61" value="2" style="rounded=0;whiteSpace=wrap;html=1;" vertex="1" parent="WIyWlLk6GJQsqaUBKTNV-1">
          <mxGeometry x="240" y="1580" width="120" height="60" as="geometry" />
        </mxCell>
        <mxCell id="mmrXnuS6sMcIIKid6mpZ-69" style="edgeStyle=orthogonalEdgeStyle;rounded=0;orthogonalLoop=1;jettySize=auto;html=1;entryX=1;entryY=0;entryDx=0;entryDy=0;" edge="1" parent="WIyWlLk6GJQsqaUBKTNV-1" source="mmrXnuS6sMcIIKid6mpZ-62" target="mmrXnuS6sMcIIKid6mpZ-60">
          <mxGeometry relative="1" as="geometry">
            <mxPoint x="360" y="1320" as="targetPoint" />
            <Array as="points">
              <mxPoint x="360" y="1320" />
            </Array>
          </mxGeometry>
        </mxCell>
        <mxCell id="mmrXnuS6sMcIIKid6mpZ-70" style="edgeStyle=orthogonalEdgeStyle;rounded=0;orthogonalLoop=1;jettySize=auto;html=1;entryX=0.5;entryY=0;entryDx=0;entryDy=0;" edge="1" parent="WIyWlLk6GJQsqaUBKTNV-1" source="mmrXnuS6sMcIIKid6mpZ-62" target="mmrXnuS6sMcIIKid6mpZ-59">
          <mxGeometry relative="1" as="geometry">
            <mxPoint x="300" y="1180" as="targetPoint" />
            <Array as="points">
              <mxPoint x="200" y="1320" />
              <mxPoint x="200" y="1180" />
              <mxPoint x="300" y="1180" />
            </Array>
          </mxGeometry>
        </mxCell>
        <mxCell id="mmrXnuS6sMcIIKid6mpZ-62" value="S" style="rhombus;whiteSpace=wrap;html=1;" vertex="1" parent="WIyWlLk6GJQsqaUBKTNV-1">
          <mxGeometry x="260" y="1280" width="70" height="80" as="geometry" />
        </mxCell>
        <mxCell id="mmrXnuS6sMcIIKid6mpZ-73" style="edgeStyle=orthogonalEdgeStyle;rounded=0;orthogonalLoop=1;jettySize=auto;html=1;entryX=1;entryY=0;entryDx=0;entryDy=0;" edge="1" parent="WIyWlLk6GJQsqaUBKTNV-1" source="mmrXnuS6sMcIIKid6mpZ-63" target="mmrXnuS6sMcIIKid6mpZ-61">
          <mxGeometry relative="1" as="geometry">
            <mxPoint x="360" y="1510" as="targetPoint" />
            <Array as="points">
              <mxPoint x="360" y="1510" />
            </Array>
          </mxGeometry>
        </mxCell>
        <mxCell id="mmrXnuS6sMcIIKid6mpZ-74" style="edgeStyle=orthogonalEdgeStyle;rounded=0;orthogonalLoop=1;jettySize=auto;html=1;entryX=0.083;entryY=0;entryDx=0;entryDy=0;entryPerimeter=0;" edge="1" parent="WIyWlLk6GJQsqaUBKTNV-1" source="mmrXnuS6sMcIIKid6mpZ-63" target="mmrXnuS6sMcIIKid6mpZ-60">
          <mxGeometry relative="1" as="geometry">
            <mxPoint x="250" y="1360" as="targetPoint" />
            <Array as="points">
              <mxPoint x="210" y="1510" />
              <mxPoint x="210" y="1360" />
              <mxPoint x="250" y="1360" />
            </Array>
          </mxGeometry>
        </mxCell>
        <mxCell id="mmrXnuS6sMcIIKid6mpZ-63" value="S" style="rhombus;whiteSpace=wrap;html=1;" vertex="1" parent="WIyWlLk6GJQsqaUBKTNV-1">
          <mxGeometry x="254" y="1470" width="80" height="80" as="geometry" />
        </mxCell>
        <mxCell id="mmrXnuS6sMcIIKid6mpZ-78" style="edgeStyle=orthogonalEdgeStyle;rounded=0;orthogonalLoop=1;jettySize=auto;html=1;entryX=0.175;entryY=-0.033;entryDx=0;entryDy=0;entryPerimeter=0;" edge="1" parent="WIyWlLk6GJQsqaUBKTNV-1" source="mmrXnuS6sMcIIKid6mpZ-64" target="mmrXnuS6sMcIIKid6mpZ-61">
          <mxGeometry relative="1" as="geometry">
            <mxPoint x="260" y="1560" as="targetPoint" />
            <Array as="points">
              <mxPoint x="200" y="1700" />
              <mxPoint x="200" y="1560" />
              <mxPoint x="261" y="1560" />
            </Array>
          </mxGeometry>
        </mxCell>
        <mxCell id="mmrXnuS6sMcIIKid6mpZ-79" style="edgeStyle=orthogonalEdgeStyle;rounded=0;orthogonalLoop=1;jettySize=auto;html=1;entryX=0.75;entryY=0;entryDx=0;entryDy=0;" edge="1" parent="WIyWlLk6GJQsqaUBKTNV-1" source="mmrXnuS6sMcIIKid6mpZ-64" target="mmrXnuS6sMcIIKid6mpZ-59">
          <mxGeometry relative="1" as="geometry">
            <mxPoint x="330" y="1180" as="targetPoint" />
            <Array as="points">
              <mxPoint x="420" y="1700" />
              <mxPoint x="420" y="1180" />
              <mxPoint x="330" y="1180" />
            </Array>
          </mxGeometry>
        </mxCell>
        <mxCell id="mmrXnuS6sMcIIKid6mpZ-64" value="S" style="rhombus;whiteSpace=wrap;html=1;" vertex="1" parent="WIyWlLk6GJQsqaUBKTNV-1">
          <mxGeometry x="254" y="1660" width="80" height="80" as="geometry" />
        </mxCell>
        <mxCell id="mmrXnuS6sMcIIKid6mpZ-66" style="edgeStyle=orthogonalEdgeStyle;rounded=0;orthogonalLoop=1;jettySize=auto;html=1;entryX=0.488;entryY=0.1;entryDx=0;entryDy=0;entryPerimeter=0;" edge="1" parent="WIyWlLk6GJQsqaUBKTNV-1" source="mmrXnuS6sMcIIKid6mpZ-59" target="mmrXnuS6sMcIIKid6mpZ-62">
          <mxGeometry relative="1" as="geometry" />
        </mxCell>
        <mxCell id="mmrXnuS6sMcIIKid6mpZ-71" style="edgeStyle=orthogonalEdgeStyle;rounded=0;orthogonalLoop=1;jettySize=auto;html=1;entryX=0.45;entryY=0.033;entryDx=0;entryDy=0;entryPerimeter=0;" edge="1" parent="WIyWlLk6GJQsqaUBKTNV-1" source="mmrXnuS6sMcIIKid6mpZ-62" target="mmrXnuS6sMcIIKid6mpZ-60">
          <mxGeometry relative="1" as="geometry" />
        </mxCell>
        <mxCell id="mmrXnuS6sMcIIKid6mpZ-76" style="edgeStyle=orthogonalEdgeStyle;rounded=0;orthogonalLoop=1;jettySize=auto;html=1;entryX=0.433;entryY=0;entryDx=0;entryDy=0;entryPerimeter=0;" edge="1" parent="WIyWlLk6GJQsqaUBKTNV-1" source="mmrXnuS6sMcIIKid6mpZ-63" target="mmrXnuS6sMcIIKid6mpZ-61">
          <mxGeometry relative="1" as="geometry" />
        </mxCell>
        <mxCell id="mmrXnuS6sMcIIKid6mpZ-77" style="edgeStyle=orthogonalEdgeStyle;rounded=0;orthogonalLoop=1;jettySize=auto;html=1;entryX=0.55;entryY=0.088;entryDx=0;entryDy=0;entryPerimeter=0;" edge="1" parent="WIyWlLk6GJQsqaUBKTNV-1" source="mmrXnuS6sMcIIKid6mpZ-61" target="mmrXnuS6sMcIIKid6mpZ-64">
          <mxGeometry relative="1" as="geometry" />
        </mxCell>
        <mxCell id="mmrXnuS6sMcIIKid6mpZ-80" value="0" style="text;html=1;align=center;verticalAlign=middle;whiteSpace=wrap;rounded=0;" vertex="1" parent="WIyWlLk6GJQsqaUBKTNV-1">
          <mxGeometry x="220" y="1480" width="60" height="30" as="geometry" />
        </mxCell>
        <mxCell id="mmrXnuS6sMcIIKid6mpZ-81" value="0" style="text;html=1;align=center;verticalAlign=middle;whiteSpace=wrap;rounded=0;" vertex="1" parent="WIyWlLk6GJQsqaUBKTNV-1">
          <mxGeometry x="230" y="1280" width="60" height="30" as="geometry" />
        </mxCell>
        <mxCell id="mmrXnuS6sMcIIKid6mpZ-82" value="0" style="text;html=1;align=center;verticalAlign=middle;whiteSpace=wrap;rounded=0;" vertex="1" parent="WIyWlLk6GJQsqaUBKTNV-1">
          <mxGeometry x="220" y="1670" width="60" height="30" as="geometry" />
        </mxCell>
        <mxCell id="mmrXnuS6sMcIIKid6mpZ-83" value="1" style="text;html=1;align=center;verticalAlign=middle;whiteSpace=wrap;rounded=0;" vertex="1" parent="WIyWlLk6GJQsqaUBKTNV-1">
          <mxGeometry x="310" y="1480" width="60" height="30" as="geometry" />
        </mxCell>
        <mxCell id="mmrXnuS6sMcIIKid6mpZ-84" value="1&lt;div&gt;&lt;br&gt;&lt;/div&gt;" style="text;html=1;align=center;verticalAlign=middle;whiteSpace=wrap;rounded=0;" vertex="1" parent="WIyWlLk6GJQsqaUBKTNV-1">
          <mxGeometry x="320" y="1670" width="60" height="30" as="geometry" />
        </mxCell>
        <mxCell id="mmrXnuS6sMcIIKid6mpZ-85" value="1" style="text;html=1;align=center;verticalAlign=middle;whiteSpace=wrap;rounded=0;" vertex="1" parent="WIyWlLk6GJQsqaUBKTNV-1">
          <mxGeometry x="310" y="1280" width="60" height="30" as="geometry" />
        </mxCell>
      </root>
    </mxGraphModel>
  </diagram>
</mxfile>
